<?xml version="1.0" encoding="utf-8"?>
<!-- Generator: Adobe Illustrator 14.0.0, SVG Export Plug-In . SVG Version: 6.00 Build 43363)  -->
<!DOCTYPE svg PUBLIC "-//W3C//DTD SVG 1.1//EN" "http://www.w3.org/Graphics/SVG/1.1/DTD/svg11.dtd">
<svg version="1.1" id="Layer_1" xmlns="http://www.w3.org/2000/svg" xmlns:xlink="http://www.w3.org/1999/xlink" x="0px" y="0px"
	 width="400px" height="400px" viewBox="0 0 400 400" enable-background="new 0 0 400 400" xml:space="preserve">
<rect fill="#BFBFBF" width="400" height="400"/>
<g>
	<path fill="#FF7F00" stroke="#3F3F3F" stroke-linejoin="round" d="M260.489,185.654c9.926,9.905,17.454,22.477,21.345,36.993
		l53.127-14.234c-6.484-24.196-19.033-45.147-35.574-61.656l-0.015,0.017l-38.881,38.883L260.489,185.654z"/>
	<path fill="#007FFF" stroke="#3F3F3F" d="M104.919,341.226l38.882-38.88v0.004c-9.925-9.906-17.455-22.477-21.345-36.996
		L69.33,279.587c6.482,24.198,19.031,45.147,35.571,61.656L104.919,341.226z"/>
	<path fill="#FFFF00" stroke="#3F3F3F" stroke-linejoin="round" d="M223.5,164.299c13.548,3.615,26.354,10.737,36.982,21.364
		l38.89-38.891c-17.712-17.712-39.055-29.582-61.635-35.609l-0.002,0.021l-14.233,53.114H223.5z"/>
	<path fill="#0000FF" stroke="#3F3F3F" d="M166.559,376.812l14.232-53.111l0.003,0.002c-13.549-3.618-26.355-10.737-36.985-21.366
		l-38.89,38.889c17.712,17.714,39.054,29.584,61.632,35.608L166.559,376.812z"/>
	<path fill="#7FFF00" stroke="#3F3F3F" stroke-linejoin="round" d="M180.789,164.298c13.539-3.642,28.191-3.877,42.708,0.013
		l14.236-53.126c-24.196-6.482-48.616-6.091-71.183-0.021l0.007,0.021l14.233,53.113L180.789,164.298z"/>
	<path fill="#7F00FF" stroke="#3F3F3F" d="M237.735,376.812l-14.233-53.113l0.004,0.002c-13.541,3.642-28.193,3.876-42.714-0.013
		l-14.235,53.126c24.197,6.482,48.615,6.091,71.181,0.021L237.735,376.812z"/>
	<path fill="#00FF00" stroke="#3F3F3F" stroke-linejoin="round" d="M143.799,185.654c9.905-9.924,22.476-17.454,36.994-21.345
		l-14.236-53.126c-24.195,6.484-45.146,19.032-61.655,35.573l0.017,0.014l38.883,38.881L143.799,185.654z"/>
	<path fill="#FF00FF" stroke="#3F3F3F" d="M299.372,341.224l-38.883-38.88l0.004-0.002c-9.904,9.926-22.477,17.456-36.996,21.345
		l14.238,53.126c24.193-6.483,45.145-19.03,61.651-35.571L299.372,341.224z"/>
	<path fill="#00FF7F" stroke="#3F3F3F" stroke-linejoin="round" d="M122.441,222.644c3.617-13.547,10.739-26.354,21.366-36.981
		l-38.891-38.891c-17.712,17.712-29.582,39.057-35.608,61.635l0.02,0.005l53.115,14.23L122.441,222.644z"/>
	<path fill="#FF007F" stroke="#3F3F3F" d="M334.958,279.585l-53.113-14.233h0.004c-3.617,13.546-10.739,26.353-21.368,36.983
		l38.892,38.891c17.714-17.714,29.581-39.056,35.61-61.632L334.958,279.585z"/>
	<path fill="#00FFFF" stroke="#3F3F3F" stroke-linejoin="round" d="M122.442,265.356c-3.642-13.542-3.877-28.193,0.011-42.711
		l-53.124-14.234c-6.482,24.195-6.092,48.613-0.021,71.181l0.02-0.007l53.113-14.233L122.442,265.356z"/>
	<path fill="#FF0000" stroke="#3F3F3F" d="M334.956,208.411l-53.113,14.231l0.002-0.005c3.642,13.542,3.88,28.195-0.013,42.714
		l53.126,14.233c6.484-24.195,6.094-48.614,0.021-71.179L334.956,208.411z"/>
</g>
<g>
	<g>
		<path fill="#2F2F2F" d="M352.332,236.065c1.017-0.185,2.495-0.323,3.857-0.323c2.148,0,3.559,0.416,4.505,1.271
			c0.763,0.693,1.225,1.756,1.225,2.98c0,2.033-1.294,3.396-2.91,3.951v0.069c1.178,0.416,1.894,1.525,2.264,3.142
			c0.508,2.171,0.878,3.673,1.201,4.273h-2.079c-0.254-0.462-0.601-1.779-1.017-3.72c-0.462-2.148-1.316-2.957-3.142-3.026h-1.895
			v6.746h-2.01V236.065z M354.342,243.157h2.056c2.148,0,3.512-1.178,3.512-2.957c0-2.01-1.455-2.888-3.581-2.888
			c-0.97,0-1.64,0.069-1.986,0.162V243.157z"/>
		<path fill="#2F2F2F" d="M365.914,246.207c0.046,2.749,1.779,3.881,3.835,3.881c1.455,0,2.356-0.254,3.096-0.577l0.369,1.455
			c-0.716,0.323-1.963,0.716-3.742,0.716c-3.442,0-5.498-2.287-5.498-5.66c0-3.373,1.986-6.006,5.244-6.006
			c3.673,0,4.62,3.188,4.62,5.244c0,0.416-0.023,0.716-0.069,0.947H365.914z M371.874,244.751c0.023-1.271-0.531-3.281-2.818-3.281
			c-2.079,0-2.957,1.872-3.118,3.281H371.874z"/>
		<path fill="#2F2F2F" d="M385.989,235.025v13.515c0,0.993,0.046,2.125,0.092,2.888h-1.802l-0.093-1.94h-0.069
			c-0.601,1.247-1.94,2.194-3.766,2.194c-2.702,0-4.805-2.287-4.805-5.683c-0.023-3.72,2.311-5.983,5.013-5.983
			c1.733,0,2.865,0.809,3.373,1.686h0.046v-6.676H385.989z M383.979,244.797c0-0.254-0.022-0.601-0.092-0.854
			c-0.301-1.271-1.409-2.333-2.934-2.333c-2.103,0-3.351,1.848-3.351,4.297c0,2.264,1.132,4.136,3.304,4.136
			c1.363,0,2.61-0.925,2.98-2.426c0.069-0.277,0.092-0.555,0.092-0.878V244.797z"/>
	</g>
	<g>
		<path fill="#2F2F2F" d="M281.186,121.901v-6.607l-4.943-8.964h2.311l2.194,4.297c0.577,1.178,1.062,2.125,1.548,3.211h0.046
			c0.416-1.017,0.971-2.033,1.571-3.211l2.24-4.297h2.265l-5.198,8.94v6.63H281.186z"/>
		<path fill="#2F2F2F" d="M289.524,116.68c0.046,2.75,1.779,3.881,3.835,3.881c1.455,0,2.356-0.254,3.096-0.578l0.369,1.456
			c-0.716,0.323-1.963,0.716-3.742,0.716c-3.442,0-5.498-2.287-5.498-5.66s1.986-6.006,5.244-6.006c3.673,0,4.62,3.188,4.62,5.244
			c0,0.416-0.022,0.716-0.069,0.947H289.524z M295.484,115.225c0.023-1.271-0.531-3.281-2.818-3.281
			c-2.079,0-2.957,1.872-3.118,3.281H295.484z"/>
		<path fill="#2F2F2F" d="M299.966,105.499h2.033v16.402h-2.033V105.499z"/>
		<path fill="#2F2F2F" d="M305.417,105.499h2.033v16.402h-2.033V105.499z"/>
		<path fill="#2F2F2F" d="M320.986,116.218c0,4.135-2.888,5.937-5.567,5.937c-3.003,0-5.359-2.218-5.359-5.752
			c0-3.72,2.472-5.914,5.544-5.914C318.815,110.489,320.986,112.822,320.986,116.218z M312.139,116.333
			c0,2.449,1.386,4.297,3.373,4.297c1.94,0,3.396-1.825,3.396-4.343c0-1.895-0.947-4.274-3.35-4.274
			C313.179,112.013,312.139,114.231,312.139,116.333z"/>
		<path fill="#2F2F2F" d="M324.197,110.72l1.502,5.683c0.3,1.248,0.601,2.402,0.809,3.558h0.068
			c0.255-1.132,0.624-2.333,0.994-3.535l1.825-5.706h1.709l1.732,5.59c0.416,1.34,0.739,2.518,0.994,3.65h0.069
			c0.185-1.132,0.484-2.31,0.854-3.627l1.594-5.614h2.01l-3.604,11.181h-1.849l-1.709-5.336c-0.393-1.248-0.717-2.356-0.994-3.673
			h-0.046c-0.277,1.34-0.624,2.495-1.017,3.696l-1.802,5.313h-1.848l-3.373-11.181H324.197z"/>
	</g>
	<g>
		<path fill="#2F2F2F" d="M81.531,102.85h2.033v13.884h6.653v1.687h-8.687V102.85z"/>
		<path fill="#2F2F2F" d="M94.651,104.098c0,0.693-0.485,1.248-1.293,1.248c-0.739,0-1.225-0.554-1.225-1.248
			c0-0.693,0.508-1.271,1.271-1.271C94.144,102.827,94.651,103.382,94.651,104.098z M92.388,118.421V107.24h2.033v11.181H92.388z"/>
		<path fill="#2F2F2F" d="M97.793,110.266c0-1.178-0.046-2.103-0.092-3.026h1.779l0.092,1.825h0.069
			c0.624-1.062,1.663-2.056,3.535-2.056c1.501,0,2.657,0.924,3.142,2.241h0.046c0.346-0.647,0.809-1.109,1.271-1.456
			c0.67-0.508,1.386-0.785,2.449-0.785c1.501,0,3.696,0.97,3.696,4.851v6.561h-1.987v-6.307c0-2.172-0.809-3.442-2.426-3.442
			c-1.178,0-2.056,0.855-2.425,1.825c-0.093,0.3-0.162,0.647-0.162,1.017v6.907h-1.986v-6.7c0-1.779-0.786-3.049-2.333-3.049
			c-1.248,0-2.195,1.017-2.518,2.033c-0.116,0.277-0.162,0.646-0.162,0.993v6.723h-1.987V110.266z"/>
		<path fill="#2F2F2F" d="M118.19,113.2c0.046,2.75,1.779,3.881,3.835,3.881c1.456,0,2.356-0.254,3.096-0.578l0.37,1.456
			c-0.716,0.323-1.964,0.716-3.743,0.716c-3.442,0-5.498-2.287-5.498-5.66c0-3.373,1.987-6.006,5.244-6.006
			c3.673,0,4.62,3.188,4.62,5.244c0,0.416-0.023,0.716-0.069,0.947H118.19z M124.151,111.745c0.023-1.271-0.531-3.281-2.818-3.281
			c-2.08,0-2.957,1.872-3.119,3.281H124.151z"/>
	</g>
	<g>
		<path fill="#2F2F2F" d="M10.806,246.53l-1.617,4.897H7.11l5.313-15.571h2.402l5.313,15.571h-2.148l-1.664-4.897H10.806z
			 M15.935,244.959l-1.548-4.481c-0.346-1.017-0.578-1.94-0.809-2.842h-0.046c-0.231,0.901-0.462,1.872-0.786,2.819l-1.525,4.504
			H15.935z"/>
		<path fill="#2F2F2F" d="M29.703,249.718h-0.046c-0.624,1.086-1.848,1.964-3.65,1.964c-2.61,0-4.736-2.24-4.736-5.637
			c0-4.205,2.703-6.029,5.059-6.029c1.733,0,2.888,0.854,3.442,1.917h0.046l0.069-1.687h1.917c-0.046,0.924-0.092,1.917-0.092,3.072
			v12.683h-2.01V249.718z M29.703,244.774c0-0.277-0.023-0.578-0.092-0.832c-0.324-1.248-1.386-2.31-2.911-2.31
			c-2.102,0-3.373,1.779-3.373,4.273c0,2.241,1.062,4.158,3.303,4.158c1.317,0,2.449-0.809,2.911-2.194
			c0.092-0.301,0.162-0.693,0.162-0.993V244.774z"/>
		<path fill="#2F2F2F" d="M44.44,248.355c0,1.178,0.023,2.194,0.093,3.072H42.73l-0.115-1.825h-0.046
			c-0.508,0.901-1.709,2.079-3.696,2.079c-1.756,0-3.858-0.993-3.858-4.897v-6.538h2.033v6.168c0,2.125,0.67,3.58,2.495,3.58
			c1.363,0,2.31-0.947,2.68-1.871c0.116-0.277,0.185-0.646,0.185-1.039v-6.838h2.033V248.355z"/>
		<path fill="#2F2F2F" d="M55.667,248.748c0,0.97,0.046,1.917,0.162,2.68h-1.825l-0.162-1.409h-0.069
			c-0.624,0.878-1.825,1.663-3.419,1.663c-2.264,0-3.419-1.594-3.419-3.211c0-2.703,2.402-4.182,6.723-4.158v-0.231
			c0-0.901-0.254-2.587-2.542-2.564c-1.062,0-2.148,0.3-2.934,0.832l-0.462-1.363c0.924-0.578,2.287-0.97,3.696-0.97
			c3.419,0,4.25,2.333,4.25,4.551V248.748z M53.703,245.722c-2.218-0.046-4.736,0.347-4.736,2.518c0,1.341,0.878,1.941,1.895,1.941
			c1.479,0,2.426-0.925,2.749-1.872c0.069-0.23,0.093-0.462,0.093-0.646V245.722z"/>
	</g>
	<g>
		<path fill="#2F2F2F" d="M84.585,367.854c0.878-0.208,2.287-0.347,3.673-0.347c2.01,0,3.304,0.347,4.251,1.133
			c0.809,0.601,1.317,1.524,1.317,2.749c0,1.524-1.017,2.841-2.634,3.419v0.069c1.479,0.347,3.211,1.57,3.211,3.881
			c0,1.34-0.532,2.38-1.34,3.119c-1.062,0.993-2.818,1.455-5.359,1.455c-1.386,0-2.449-0.093-3.119-0.185V367.854z M86.595,374.229
			h1.825c2.102,0,3.35-1.132,3.35-2.633c0-1.803-1.363-2.542-3.396-2.542c-0.924,0-1.456,0.069-1.779,0.139V374.229z
			 M86.595,381.669c0.416,0.069,0.97,0.092,1.687,0.092c2.079,0,3.997-0.762,3.997-3.026c0-2.102-1.825-3.003-4.02-3.003h-1.663
			V381.669z"/>
		<path fill="#2F2F2F" d="M97.036,366.791h2.033v16.402h-2.033V366.791z"/>
		<path fill="#2F2F2F" d="M111.843,380.121c0,1.178,0.023,2.194,0.093,3.072h-1.802l-0.115-1.825h-0.046
			c-0.508,0.901-1.709,2.079-3.696,2.079c-1.756,0-3.858-0.993-3.858-4.897v-6.538h2.033v6.169c0,2.125,0.67,3.58,2.495,3.58
			c1.363,0,2.31-0.947,2.68-1.871c0.116-0.277,0.185-0.646,0.185-1.039v-6.839h2.033V380.121z"/>
		<path fill="#2F2F2F" d="M116.347,377.973c0.046,2.749,1.779,3.881,3.835,3.881c1.456,0,2.356-0.254,3.096-0.577l0.37,1.455
			c-0.716,0.323-1.964,0.716-3.743,0.716c-3.442,0-5.498-2.287-5.498-5.66c0-3.372,1.987-6.006,5.244-6.006
			c3.673,0,4.62,3.188,4.62,5.244c0,0.416-0.023,0.716-0.069,0.947H116.347z M122.308,376.517c0.023-1.271-0.531-3.28-2.818-3.28
			c-2.079,0-2.957,1.871-3.119,3.28H122.308z"/>
	</g>
	<g>
		<path fill="#2F2F2F" d="M282.695,367.623h8.386v1.687h-6.353v5.175h5.868v1.663h-5.868v7.046h-2.033V367.623z"/>
		<path fill="#2F2F2F" d="M302.447,380.121c0,1.178,0.022,2.194,0.092,3.072h-1.802l-0.115-1.825h-0.046
			c-0.509,0.901-1.71,2.079-3.696,2.079c-1.756,0-3.858-0.993-3.858-4.897v-6.538h2.033v6.169c0,2.125,0.67,3.58,2.495,3.58
			c1.362,0,2.31-0.947,2.68-1.871c0.115-0.277,0.185-0.646,0.185-1.039v-6.839h2.033V380.121z"/>
		<path fill="#2F2F2F" d="M313.788,382.801c-0.531,0.254-1.709,0.646-3.211,0.646c-3.373,0-5.567-2.287-5.567-5.706
			c0-3.442,2.356-5.96,6.007-5.96c1.201,0,2.264,0.3,2.818,0.601l-0.462,1.548c-0.485-0.254-1.248-0.531-2.356-0.531
			c-2.564,0-3.951,1.917-3.951,4.228c0,2.587,1.664,4.182,3.882,4.182c1.154,0,1.917-0.277,2.494-0.531L313.788,382.801z"/>
		<path fill="#2F2F2F" d="M316.168,366.791h2.033v7h0.046c0.323-0.578,0.832-1.109,1.455-1.455c0.601-0.347,1.317-0.555,2.079-0.555
			c1.502,0,3.904,0.924,3.904,4.759v6.653h-2.032v-6.422c0-1.803-0.671-3.304-2.588-3.304c-1.316,0-2.333,0.924-2.726,2.01
			c-0.116,0.3-0.139,0.601-0.139,0.97v6.746h-2.033V366.791z"/>
		<path fill="#2F2F2F" d="M328.711,381.138c0.624,0.369,1.687,0.785,2.703,0.785c1.455,0,2.148-0.716,2.148-1.663
			c0-0.971-0.578-1.479-2.057-2.033c-2.032-0.739-2.979-1.825-2.979-3.165c0-1.802,1.479-3.28,3.857-3.28
			c1.133,0,2.126,0.3,2.727,0.693l-0.485,1.479c-0.438-0.277-1.247-0.671-2.287-0.671c-1.201,0-1.848,0.693-1.848,1.525
			c0,0.924,0.646,1.34,2.102,1.917c1.918,0.717,2.935,1.687,2.935,3.35c0,1.987-1.548,3.373-4.159,3.373
			c-1.224,0-2.355-0.323-3.142-0.785L328.711,381.138z"/>
		<path fill="#2F2F2F" d="M340.399,368.87c0,0.693-0.485,1.248-1.294,1.248c-0.739,0-1.224-0.555-1.224-1.248
			s0.508-1.271,1.271-1.271C339.892,367.6,340.399,368.154,340.399,368.87z M338.136,383.193v-11.182h2.033v11.182H338.136z"/>
		<path fill="#2F2F2F" d="M351.396,380.514c0,0.97,0.046,1.917,0.162,2.68h-1.825l-0.162-1.409h-0.069
			c-0.624,0.878-1.825,1.663-3.419,1.663c-2.264,0-3.419-1.594-3.419-3.211c0-2.703,2.402-4.182,6.723-4.158v-0.231
			c0-0.9-0.254-2.587-2.541-2.564c-1.062,0-2.148,0.301-2.935,0.832l-0.462-1.363c0.925-0.577,2.287-0.97,3.696-0.97
			c3.419,0,4.251,2.333,4.251,4.551V380.514z M349.432,377.487c-2.218-0.046-4.735,0.347-4.735,2.518
			c0,1.341,0.878,1.941,1.895,1.941c1.479,0,2.425-0.925,2.749-1.872c0.069-0.23,0.092-0.462,0.092-0.646V377.487z"/>
	</g>
</g>
<g>
	<path fill="#2F2F2F" stroke="#BFBFBF" stroke-width="0.3" d="M85.227,22.501v6.208h6.554v-6.208h2.828V38h-2.828v-6.83h-6.554V38
		h-2.828V22.501H85.227z"/>
	<path fill="#2F2F2F" stroke="#BFBFBF" stroke-width="0.3" d="M98.958,34.918c0.897,0.529,2.3,0.989,3.749,0.989
		c1.793,0,2.805-0.851,2.805-2.115c0-1.173-0.782-1.863-2.736-2.576c-2.575-0.919-4.208-2.276-4.208-4.507
		c0-2.552,2.116-4.461,5.496-4.461c1.679,0,2.897,0.368,3.702,0.782l-0.667,2.276c-0.575-0.299-1.656-0.736-3.104-0.736
		c-1.793,0-2.552,0.943-2.552,1.863c0,1.196,0.896,1.748,2.966,2.552c2.69,1.012,3.978,2.369,3.978,4.599
		c0,2.506-1.886,4.668-5.864,4.668c-1.656,0-3.357-0.46-4.208-0.989L98.958,34.918z"/>
	<path fill="#2F2F2F" stroke="#BFBFBF" stroke-width="0.3" d="M115.633,38l-5.013-15.499h3.081l2.116,7.06
		c0.598,1.955,1.126,3.748,1.518,5.634h0.046c0.414-1.84,0.989-3.726,1.587-5.611l2.253-7.083h3.012L118.875,38H115.633z"/>
	<path fill="#2F2F2F" d="M145.48,37.412c-0.868,0.448-2.688,0.896-4.984,0.896c-5.32,0-9.296-3.36-9.296-9.576
		c0-5.936,4.004-9.912,9.856-9.912c2.324,0,3.836,0.504,4.48,0.84l-0.616,1.988c-0.896-0.448-2.212-0.784-3.78-0.784
		c-4.424,0-7.364,2.828-7.364,7.784c0,4.648,2.66,7.588,7.224,7.588c1.512,0,3.024-0.308,4.004-0.784L145.48,37.412z"/>
	<path fill="#2F2F2F" d="M160.433,31.112c0,5.012-3.5,7.196-6.748,7.196c-3.64,0-6.496-2.688-6.496-6.972
		c0-4.508,2.996-7.168,6.72-7.168C157.8,24.168,160.433,26.996,160.433,31.112z M149.708,31.252c0,2.968,1.68,5.208,4.088,5.208
		c2.352,0,4.116-2.212,4.116-5.264c0-2.296-1.148-5.18-4.06-5.18C150.968,26.016,149.708,28.704,149.708,31.252z"/>
	<path fill="#2F2F2F" d="M163.541,18.12h2.464V38h-2.464V18.12z"/>
	<path fill="#2F2F2F" d="M182.413,31.112c0,5.012-3.5,7.196-6.748,7.196c-3.64,0-6.496-2.688-6.496-6.972
		c0-4.508,2.996-7.168,6.72-7.168C179.78,24.168,182.413,26.996,182.413,31.112z M171.688,31.252c0,2.968,1.68,5.208,4.088,5.208
		c2.352,0,4.116-2.212,4.116-5.264c0-2.296-1.148-5.18-4.06-5.18C172.948,26.016,171.688,28.704,171.688,31.252z"/>
	<path fill="#2F2F2F" d="M185.52,28.676c0-1.596-0.028-2.968-0.112-4.228h2.156l0.112,2.688h0.084
		c0.616-1.82,2.128-2.968,3.78-2.968c0.252,0,0.448,0.028,0.672,0.056v2.324c-0.252-0.056-0.504-0.056-0.84-0.056
		c-1.736,0-2.968,1.288-3.304,3.136c-0.056,0.336-0.084,0.756-0.084,1.148V38h-2.464V28.676z"/>
	<path fill="#2F2F2F" d="M213.855,37.412c-0.867,0.448-2.688,0.896-4.983,0.896c-5.32,0-9.296-3.36-9.296-9.576
		c0-5.936,4.004-9.912,9.856-9.912c2.324,0,3.836,0.504,4.48,0.84l-0.616,1.988c-0.896-0.448-2.212-0.784-3.78-0.784
		c-4.424,0-7.363,2.828-7.363,7.784c0,4.648,2.66,7.588,7.224,7.588c1.512,0,3.024-0.308,4.004-0.784L213.855,37.412z"/>
	<path fill="#2F2F2F" d="M219.512,20.64c0,0.84-0.588,1.512-1.568,1.512c-0.896,0-1.484-0.672-1.484-1.512s0.617-1.54,1.541-1.54
		C218.896,19.1,219.512,19.772,219.512,20.64z M216.768,38V24.448h2.464V38H216.768z"/>
	<path fill="#2F2F2F" d="M223.319,28.676c0-1.596-0.028-2.968-0.112-4.228h2.156l0.112,2.688h0.084
		c0.616-1.82,2.128-2.968,3.78-2.968c0.252,0,0.447,0.028,0.672,0.056v2.324c-0.252-0.056-0.504-0.056-0.84-0.056
		c-1.736,0-2.969,1.288-3.305,3.136c-0.056,0.336-0.084,0.756-0.084,1.148V38h-2.464V28.676z"/>
	<path fill="#2F2F2F" d="M241.855,37.524c-0.645,0.308-2.072,0.784-3.893,0.784c-4.088,0-6.748-2.772-6.748-6.916
		c0-4.172,2.856-7.224,7.28-7.224c1.456,0,2.744,0.364,3.416,0.728l-0.56,1.876c-0.588-0.308-1.512-0.644-2.856-0.644
		c-3.108,0-4.788,2.324-4.788,5.124c0,3.136,2.016,5.068,4.704,5.068c1.4,0,2.324-0.336,3.024-0.644L241.855,37.524z"/>
	<path fill="#2F2F2F" d="M244.739,18.12h2.464V38h-2.464V18.12z"/>
	<path fill="#2F2F2F" d="M252.719,31.672c0.057,3.332,2.156,4.704,4.648,4.704c1.764,0,2.855-0.308,3.752-0.7l0.448,1.764
		c-0.868,0.392-2.38,0.868-4.536,0.868c-4.172,0-6.664-2.772-6.664-6.86c0-4.088,2.408-7.28,6.355-7.28
		c4.453,0,5.601,3.864,5.601,6.356c0,0.504-0.028,0.868-0.084,1.148H252.719z M259.943,29.908c0.027-1.54-0.645-3.976-3.416-3.976
		c-2.52,0-3.584,2.268-3.78,3.976H259.943z"/>
	<path fill="#2F2F2F" d="M272.291,24.448l1.819,6.888c0.364,1.512,0.728,2.912,0.98,4.312h0.084
		c0.308-1.372,0.756-2.828,1.204-4.284l2.211-6.916h2.072l2.101,6.776c0.504,1.624,0.896,3.052,1.204,4.424h0.084
		c0.224-1.372,0.588-2.8,1.035-4.396l1.933-6.804h2.437L285.086,38h-2.239l-2.072-6.468c-0.476-1.512-0.868-2.856-1.204-4.452
		h-0.056c-0.336,1.624-0.756,3.024-1.231,4.48L276.099,38h-2.24l-4.088-13.552H272.291z"/>
	<path fill="#2F2F2F" d="M294.662,20.64c0,0.84-0.588,1.512-1.567,1.512c-0.896,0-1.484-0.672-1.484-1.512s0.616-1.54,1.54-1.54
		C294.047,19.1,294.662,19.772,294.662,20.64z M291.918,38V24.448h2.465V38H291.918z"/>
	<path fill="#2F2F2F" d="M301.438,21.2v3.248h3.528v1.876h-3.528v7.308c0,1.68,0.476,2.632,1.848,2.632
		c0.672,0,1.063-0.056,1.429-0.168l0.111,1.876c-0.477,0.168-1.232,0.336-2.184,0.336c-1.148,0-2.072-0.392-2.66-1.036
		c-0.672-0.756-0.952-1.96-0.952-3.556v-7.392h-2.101v-1.876h2.101v-2.52L301.438,21.2z"/>
	<path fill="#2F2F2F" d="M307.738,18.12h2.464v8.484h0.056c0.393-0.7,1.008-1.344,1.765-1.764c0.728-0.42,1.596-0.672,2.521-0.672
		c1.819,0,4.731,1.12,4.731,5.768V38h-2.464v-7.784c0-2.184-0.812-4.004-3.137-4.004c-1.596,0-2.828,1.12-3.304,2.436
		c-0.14,0.364-0.168,0.728-0.168,1.176V38h-2.464V18.12z"/>
	<path fill="#2F2F2F" stroke="#BFBFBF" stroke-width="0.3" d="M97.488,56.102v6.208h6.554v-6.208h2.828V71.6h-2.828v-6.83h-6.554
		v6.83H94.66V56.102H97.488z"/>
	<path fill="#2F2F2F" stroke="#BFBFBF" stroke-width="0.3" d="M114.232,58.47h-4.415v-2.368h11.704v2.368h-4.461V71.6h-2.828V58.47z
		"/>
	<path fill="#2F2F2F" stroke="#BFBFBF" stroke-width="0.3" d="M137.506,65.276c-0.092-2-0.207-4.415-0.184-6.507h-0.069
		c-0.506,1.885-1.15,3.978-1.84,5.933l-2.276,6.714h-2.162l-2.069-6.623c-0.598-1.978-1.15-4.093-1.563-6.024h-0.046
		c-0.069,2.023-0.161,4.484-0.276,6.6l-0.345,6.231h-2.645l1.035-15.499h3.725l2.024,6.231c0.552,1.817,1.035,3.656,1.426,5.381
		h0.069c0.414-1.679,0.943-3.587,1.541-5.404l2.139-6.208h3.679l0.896,15.499h-2.759L137.506,65.276z"/>
	<path fill="#2F2F2F" stroke="#BFBFBF" stroke-width="0.3" d="M144.593,56.102h2.828v13.13h6.37V71.6h-9.198V56.102z"/>
	<path fill="#2F2F2F" d="M175.498,71.012c-0.868,0.448-2.688,0.896-4.984,0.896c-5.32,0-9.296-3.36-9.296-9.576
		c0-5.936,4.004-9.912,9.856-9.912c2.324,0,3.836,0.504,4.48,0.84l-0.616,1.988c-0.896-0.448-2.212-0.784-3.78-0.784
		c-4.424,0-7.364,2.828-7.364,7.784c0,4.648,2.66,7.588,7.224,7.588c1.512,0,3.024-0.308,4.004-0.784L175.498,71.012z"/>
	<path fill="#2F2F2F" d="M190.45,64.712c0,5.012-3.5,7.196-6.748,7.196c-3.64,0-6.496-2.688-6.496-6.972
		c0-4.508,2.996-7.168,6.72-7.168C187.817,57.768,190.45,60.596,190.45,64.712z M179.726,64.852c0,2.968,1.68,5.208,4.088,5.208
		c2.352,0,4.116-2.212,4.116-5.264c0-2.296-1.148-5.18-4.06-5.18C180.985,59.616,179.726,62.304,179.726,64.852z"/>
	<path fill="#2F2F2F" d="M193.558,51.72h2.464V71.6h-2.464V51.72z"/>
	<path fill="#2F2F2F" d="M212.43,64.712c0,5.012-3.5,7.196-6.748,7.196c-3.641,0-6.496-2.688-6.496-6.972
		c0-4.508,2.996-7.168,6.721-7.168C209.797,57.768,212.43,60.596,212.43,64.712z M201.705,64.852c0,2.968,1.681,5.208,4.088,5.208
		c2.353,0,4.117-2.212,4.117-5.264c0-2.296-1.148-5.18-4.061-5.18C202.965,59.616,201.705,62.304,201.705,64.852z"/>
	<path fill="#2F2F2F" d="M215.537,62.276c0-1.596-0.027-2.968-0.111-4.228h2.155l0.112,2.688h0.084
		c0.615-1.82,2.128-2.968,3.779-2.968c0.252,0,0.448,0.028,0.672,0.056v2.324c-0.252-0.056-0.504-0.056-0.84-0.056
		c-1.735,0-2.968,1.288-3.304,3.136c-0.056,0.336-0.084,0.756-0.084,1.148V71.6h-2.464V62.276z"/>
	<path fill="#2F2F2F" d="M230.713,71.6V52.728h2.688l6.021,9.548c1.372,2.212,2.492,4.2,3.36,6.132l0.084-0.028
		c-0.225-2.52-0.28-4.816-0.28-7.756v-7.896h2.296V71.6h-2.464l-5.992-9.576c-1.315-2.1-2.575-4.256-3.5-6.3l-0.084,0.028
		c0.14,2.38,0.168,4.648,0.168,7.784V71.6H230.713z"/>
	<path fill="#2F2F2F" d="M258.572,68.352c0,1.176,0.057,2.324,0.196,3.248h-2.212l-0.195-1.708h-0.084
		c-0.757,1.064-2.213,2.016-4.145,2.016c-2.744,0-4.145-1.932-4.145-3.892c0-3.276,2.912-5.068,8.148-5.04v-0.28
		c0-1.092-0.309-3.136-3.08-3.108c-1.288,0-2.604,0.364-3.556,1.008l-0.56-1.652c1.119-0.7,2.771-1.176,4.479-1.176
		c4.144,0,5.151,2.828,5.151,5.516V68.352z M256.193,64.684c-2.688-0.056-5.74,0.42-5.74,3.052c0,1.624,1.063,2.352,2.295,2.352
		c1.793,0,2.941-1.12,3.332-2.268c0.084-0.28,0.113-0.56,0.113-0.784V64.684z"/>
	<path fill="#2F2F2F" d="M262.549,61.716c0-1.428-0.057-2.548-0.112-3.668h2.155l0.113,2.212h0.084
		c0.756-1.288,2.016-2.492,4.283-2.492c1.82,0,3.221,1.12,3.809,2.716h0.056c0.42-0.784,0.979-1.344,1.54-1.764
		c0.812-0.616,1.68-0.952,2.968-0.952c1.819,0,4.479,1.176,4.479,5.88V71.6h-2.408v-7.644c0-2.632-0.979-4.172-2.939-4.172
		c-1.428,0-2.492,1.036-2.939,2.212c-0.112,0.364-0.196,0.784-0.196,1.232V71.6h-2.408v-8.12c0-2.156-0.952-3.696-2.827-3.696
		c-1.513,0-2.66,1.232-3.053,2.464c-0.141,0.336-0.195,0.784-0.195,1.204V71.6h-2.408V61.716z"/>
	<path fill="#2F2F2F" d="M287.272,65.272c0.056,3.332,2.155,4.704,4.647,4.704c1.765,0,2.856-0.308,3.752-0.7l0.449,1.764
		c-0.869,0.392-2.381,0.868-4.537,0.868c-4.172,0-6.664-2.772-6.664-6.86c0-4.088,2.408-7.28,6.356-7.28
		c4.452,0,5.601,3.864,5.601,6.356c0,0.504-0.028,0.868-0.084,1.148H287.272z M294.496,63.508c0.028-1.54-0.644-3.976-3.416-3.976
		c-2.52,0-3.584,2.268-3.779,3.976H294.496z"/>
	<path fill="#2F2F2F" d="M299.592,69.108c0.756,0.448,2.045,0.952,3.276,0.952c1.765,0,2.604-0.868,2.604-2.016
		c0-1.176-0.7-1.792-2.492-2.464c-2.465-0.896-3.612-2.212-3.612-3.836c0-2.184,1.792-3.976,4.677-3.976
		c1.371,0,2.575,0.364,3.303,0.84L306.76,60.4c-0.531-0.336-1.512-0.812-2.771-0.812c-1.456,0-2.24,0.84-2.24,1.848
		c0,1.12,0.784,1.624,2.549,2.324c2.323,0.868,3.555,2.044,3.555,4.06c0,2.408-1.875,4.088-5.039,4.088
		c-1.484,0-2.856-0.392-3.809-0.952L299.592,69.108z"/>
</g>
</svg>
